# xmcd
#
# Track frame offsets:
#	150
#	23378
#	36456
#	69641
#	89732
#	125042
#
# Disc length: 1926 seconds
#
# Revision: 1
# Processed by: cddbd v1.5.1PL2 Copyright (c) Steve Scherf et al.
# Submitted via: EasyCDDAExtractor 10.0.1.1
#
DISCID=51078406
DTITLE=Twentysixfeet - Two Hours Of Passionless Tango
DYEAR=2006
DGENRE=Progressive Rock
TTITLE0=Seven Stone Csyt
TTITLE1=A Pocket Full Of Poses
TTITLE2=Swans And Cholera
TTITLE3=You're Too Cold
TTITLE4=All Things Fall Apart
TTITLE5=Memory Is Everything
EXTD=
EXTT0=
EXTT1=
EXTT2=
EXTT3=
EXTT4=
EXTT5=
PLAYORDER=
